<svg width="25" height="24" viewBox="0 0 25 24" fill="none" xmlns="http://www.w3.org/2000/svg">
<mask id="mask0_703_179" style="mask-type:alpha" maskUnits="userSpaceOnUse" x="0" y="0" width="25" height="24">
<rect x="0.5" width="24" height="24" fill="#D9D9D9"/>
</mask>
<g mask="url(#mask0_703_179)">
<path d="M12.5 23.3L9.14995 20H4.49995V15.35L1.19995 12L4.49995 8.65001V4.00001H9.14995L12.5 0.700012L15.85 4.00001H20.5V8.65001L23.8 12L20.5 15.35V20H15.85L12.5 23.3ZM12.5 17C13.8833 17 15.0625 16.5125 16.0375 15.5375C17.0125 14.5625 17.5 13.3833 17.5 12C17.5 10.6167 17.0125 9.43751 16.0375 8.46251C15.0625 7.48751 13.8833 7.00001 12.5 7.00001C11.1166 7.00001 9.93745 7.48751 8.96245 8.46251C7.98745 9.43751 7.49995 10.6167 7.49995 12C7.49995 13.3833 7.98745 14.5625 8.96245 15.5375C9.93745 16.5125 11.1166 17 12.5 17ZM12.5 15C11.6666 15 10.9583 14.7083 10.375 14.125C9.79162 13.5417 9.49995 12.8333 9.49995 12C9.49995 11.1667 9.79162 10.4583 10.375 9.87501C10.9583 9.29168 11.6666 9.00001 12.5 9.00001C13.3333 9.00001 14.0416 9.29168 14.625 9.87501C15.2083 10.4583 15.5 11.1667 15.5 12C15.5 12.8333 15.2083 13.5417 14.625 14.125C14.0416 14.7083 13.3333 15 12.5 15ZM12.5 20.5L15 18H18.5V14.5L21 12L18.5 9.50001V6.00001H15L12.5 3.50001L9.99995 6.00001H6.49995V9.50001L3.99995 12L6.49995 14.5V18H9.99995L12.5 20.5Z" fill="#0E5850"/>
</g>
</svg>
