<svg width="80" height="80" viewBox="0 0 80 80" fill="none" xmlns="http://www.w3.org/2000/svg">
<circle cx="40" cy="40" r="30" fill="#2EB843"/>
<circle cx="40" cy="40" r="40" fill="#2EB843" fill-opacity="0.2"/>
<g clip-path="url(#clip0_786_538)">
<path d="M25.126 39.4545C25.1252 42.002 25.7958 44.4891 27.0707 46.6812L25.0037 54.1715L32.727 52.1617C34.8551 53.3132 37.251 53.9204 39.6891 53.9213H39.6954C47.7247 53.9213 54.2611 47.436 54.2645 39.466C54.2659 35.6035 52.7516 31.9714 50.0011 29.2391C47.2503 26.5072 43.5927 25.0016 39.6954 25C31.6646 25 25.1293 31.4844 25.1261 39.4545H25.126ZM29.7254 46.3037L29.437 45.8493C28.2248 43.9362 27.5849 41.7255 27.5858 39.4554C27.5884 32.8309 33.0205 27.4413 39.6999 27.4413C42.9346 27.4427 45.9746 28.6942 48.261 30.9648C50.5474 33.2357 51.8055 36.2545 51.8047 39.4651C51.8017 46.0896 46.3696 51.4799 39.6954 51.4799H39.6906C37.5174 51.4787 35.386 50.8995 33.5273 49.8049L33.0849 49.5445L28.5017 50.7372L29.7254 46.3036V46.3037Z" fill="url(#paint0_linear_786_538)"/>
<path d="M36.0541 33.4116C35.7814 32.81 35.4944 32.7978 35.235 32.7873C35.0227 32.7782 34.7799 32.7789 34.5373 32.7789C34.2946 32.7789 33.9001 32.8695 33.5667 33.2309C33.2329 33.5925 32.2925 34.4665 32.2925 36.244C32.2925 38.0217 33.597 39.7395 33.7788 39.9808C33.9609 40.2217 36.2972 43.9862 39.9973 45.4344C43.0725 46.6379 43.6983 46.3985 44.3657 46.3382C45.0332 46.278 46.5195 45.4644 46.8228 44.6208C47.1263 43.7772 47.1263 43.0541 47.0353 42.903C46.9443 42.7525 46.7015 42.6621 46.3375 42.4814C45.9733 42.3007 44.1836 41.4267 43.8499 41.3061C43.5162 41.1856 43.2735 41.1255 43.0308 41.4872C42.788 41.8484 42.0909 42.6621 41.8784 42.903C41.6661 43.1445 41.4536 43.1746 41.0897 42.9939C40.7254 42.8126 39.5531 42.4315 38.1621 41.2008C37.0799 40.2431 36.3493 39.0605 36.137 38.6987C35.9246 38.3375 36.1142 38.1417 36.2968 37.9617C36.4603 37.7998 36.6609 37.5398 36.8431 37.3289C37.0246 37.1179 37.0852 36.9673 37.2066 36.7264C37.3281 36.4852 37.2673 36.2742 37.1764 36.0935C37.0852 35.9128 36.3778 34.126 36.0541 33.4117" fill="white"/>
</g>
<defs>
<linearGradient id="paint0_linear_786_538" x1="39.6341" y1="54.1715" x2="39.6341" y2="25" gradientUnits="userSpaceOnUse">
<stop stop-color="#F9F9F9"/>
<stop offset="1" stop-color="white"/>
</linearGradient>
<clipPath id="clip0_786_538">
<rect width="29.2683" height="29.2683" fill="white" transform="translate(25 25)"/>
</clipPath>
</defs>
</svg>
